<?xml version="1.0" standalone="no"?>
<!DOCTYPE svg PUBLIC "-//W3C//DTD SVG 20010904//EN"
 "http://www.w3.org/TR/2001/REC-SVG-20010904/DTD/svg10.dtd">
<svg version="1.0" xmlns="http://www.w3.org/2000/svg"
 width="432.000000pt" height="372.000000pt" viewBox="0 0 432.000000 372.000000"
 preserveAspectRatio="xMidYMid meet">

<g transform="translate(0.000000,372.000000) scale(0.100000,-0.100000)"
fill="#fff" stroke="none">
<path d="M797 3310 c-167 -30 -310 -186 -323 -356 -5 -61 -3 -73 18 -104 74
-111 226 -74 244 59 9 71 39 113 92 129 23 6 61 18 84 25 53 15 88 63 88 119
0 102 -77 150 -203 128z"/>
<path d="M1355 3306 c-104 -47 -112 -185 -14 -238 28 -15 58 -18 192 -18 115
0 167 4 192 14 90 38 101 176 18 232 -24 16 -50 19 -193 22 -123 1 -173 -1
-195 -12z"/>
<path d="M2262 3309 c-118 -23 -233 -112 -288 -224 -29 -60 -29 -60 -32 -273
l-3 -213 39 -39 c36 -36 45 -40 91 -40 44 0 56 5 89 34 l37 34 5 184 c6 203
10 220 73 258 31 19 54 20 525 20 544 0 544 0 582 -62 20 -33 20 -47 20 -1138
0 -1091 0 -1105 -20 -1138 -38 -62 -38 -62 -582 -62 -471 0 -494 1 -525 20
-63 38 -67 55 -73 258 l-5 184 -37 34 c-33 29 -45 34 -89 34 -46 0 -55 -4 -91
-40 l-39 -39 3 -213 c3 -213 3 -213 32 -273 57 -115 169 -201 296 -225 68 -13
985 -13 1064 0 127 21 238 105 298 227 l33 68 0 1165 0 1165 -33 68 c-60 122
-171 206 -298 227 -72 12 -1011 11 -1072 -1z"/>
<path d="M555 2506 c-16 -7 -41 -26 -55 -41 -24 -26 -25 -31 -28 -203 -3 -171
-2 -178 20 -212 51 -76 143 -87 205 -25 40 40 46 80 41 262 -3 148 -11 175
-61 207 -34 22 -88 28 -122 12z"/>
<path d="M1341 2232 c-66 -35 -71 -58 -71 -318 0 -224 1 -232 23 -265 42 -63
67 -69 302 -69 116 0 227 5 247 10 75 21 115 109 81 178 -30 61 -72 82 -167
82 -75 1 -80 2 -61 16 84 66 244 114 375 114 185 0 335 -63 470 -199 124 -124
178 -245 196 -431 4 -41 13 -87 20 -101 45 -89 195 -82 234 11 16 39 8 200
-15 284 -80 299 -299 543 -577 645 -123 45 -179 55 -328 55 -106 0 -162 -4
-210 -17 -97 -26 -190 -64 -255 -102 -32 -19 -59 -35 -60 -35 -1 0 -5 17 -9
38 -15 97 -112 148 -195 104z"/>
<path d="M555 1706 c-16 -7 -41 -26 -55 -41 -24 -26 -25 -31 -28 -203 -3 -171
-2 -178 20 -212 51 -76 143 -87 205 -25 40 40 46 80 41 262 -3 148 -11 175
-61 207 -34 22 -88 28 -122 12z"/>
<path d="M555 906 c-16 -7 -41 -26 -55 -41 -22 -24 -25 -35 -25 -103 1 -100
38 -185 115 -260 107 -106 274 -149 358 -94 54 35 69 124 29 183 -22 34 -27
36 -152 72 -49 15 -80 58 -89 126 -8 62 -43 106 -94 121 -46 12 -50 12 -87 -4z"/>
<path d="M1341 632 c-67 -36 -90 -121 -48 -183 42 -63 71 -70 257 -67 142 3
169 6 193 22 83 56 72 194 -18 232 -25 10 -77 14 -192 14 -134 0 -164 -3 -192
-18z"/>
</g>
</svg>
